<?xml version="1.0" encoding="UTF-8"?>
<svg id="Layer_1" xmlns="http://www.w3.org/2000/svg" viewBox="0 0 1128.93 983.76">
  <defs>
    <style>
      .cls-1 {
        fill: #bc6a3c;
      }
    </style>
  </defs>
  <path class="cls-1" d="M627.93.78c-11.8,3.6-22,17.1-22,29.3,0,3.1.4,6.7.9,8,1.4,3.7,8.3,9.8,36.1,32,25.1,20.1,93.3,74.7,110.2,88.3,4.7,3.9,12.4,10,17,13.6,4.5,3.7,17.8,14.3,29.5,23.7s22.9,17.6,24.9,18.2c10.7,3.6,26.3-6.2,31.4-19.6,3.9-10.5,2.3-18.2-5.1-24.9-9.2-8.3-205.3-165.1-209.2-167.3-4-2.2-9-2.7-13.7-1.3Z"/>
  <path class="cls-1" d="M593.93,49.78c-7,2.8-15.7,9.1-24.6,17.7-6.7,6.5-31,35.8-48.9,58.9-2.2,2.8-14.8,18.5-28,34.9s-25.1,31.2-26.5,33.1c-1.4,1.8-9.7,12.1-18.5,23-8.8,10.8-17.1,21.2-18.5,23s-7.7,9.8-14,17.6c-6.4,7.9-12.7,15.8-14,17.5-1.4,1.7-11.5,14.3-22.5,27.8-11,13.6-20.5,25.5-21,26.4-.6,1-2.9,4.4-5.2,7.8-4.6,6.8-9.3,16.3-11.8,24.2-2.5,7.5-1.7,17.2,1.5,20.8,2.3,2.4,19,16.2,39.5,32.4,7.6,6,49.4,39.5,123.9,99.5,16.5,13.2,32,25.7,34.5,27.7,2.5,2.1,6.3,4.7,8.4,5.8,3.4,1.9,4.4,2,9,1,13.1-2.8,30.9-17.5,49.2-40.8,6.6-8.3,10.3-12.9,19.4-24.1,7.4-9.1,19.3-24,24.9-31.1,9.5-12.1,24.5-30.5,25.1-30.8.7-.2,11.5,8.2,20.1,15.7,5.6,5,18.5,15.9,31.5,26.6,9.1,7.6,42.2,35.5,49.1,41.5,6.4,5.6,19.5,16.7,28.9,24.5,16.5,13.7,26.2,21.9,29,24.4,1.7,1.5,7.1,6,12,10.1,5,4.1,10.1,8.4,11.5,9.6,6.3,5.5,18.3,15.6,26.5,22.3,5,4.1,9.7,8.2,10.5,9.1s3.8,3.4,6.5,5.6c2.8,2.1,8.4,6.8,12.6,10.4s14,11.9,21.9,18.5,16.5,13.8,19,16.1c2.5,2.2,5.8,5,7.3,6.1,1.5,1.2,5.4,4.4,8.5,7.1,3.1,2.8,10.1,8.8,15.6,13.4,25.8,21.8,27.5,22.8,31,19.3,1.6-1.6,31.5-38.5,35.1-43.4,1.1-1.4,5.3-6.6,9.3-11.5,5.6-6.7,7.2-9.4,7-11.4-.3-2.6-3.9-5.8-16.3-14.7-3-2.2-9.1-6.7-13.5-10-13.3-10.1-17.2-13-18.9-14-.9-.6-6.9-5.1-13.5-10-6.5-5-12.6-9.5-13.5-10-.9-.6-7-5.1-13.5-10-6.5-5-12.8-9.7-14-10.5s-7.2-5.3-13.4-10c-6.3-4.7-12.4-9.2-13.5-10-2.6-1.7-28.5-20.9-58.7-43.4-11.8-8.8-27.6-20.5-35-26s-19.9-14.7-27.7-20.5-20.3-15.1-27.8-20.6c-7.4-5.5-16.3-12.1-19.8-14.7-3.4-2.6-12.7-9.6-20.7-15.5-8-5.8-18.7-13.8-23.8-17.6l-9.2-6.9,3.2-4.1c5.6-7.1,25.5-31.9,30.2-37.7,2.5-3,7.1-8.7,10.3-12.6,15.2-18.6,39.4-49.5,43.1-55,5.2-7.6,12.7-23.3,14.1-29.4,2.6-11.1.8-16.6-7.6-23.2-3-2.3-9.4-7.4-14.1-11.3-4.8-3.8-26.9-21.6-49.2-39.4-22.3-17.9-51.7-41.5-65.4-52.6-26-20.8-32.8-26.3-46.1-36.9-4.4-3.5-11.6-9.3-16-12.8-4.4-3.6-9-7-10.2-7.6-3.1-1.7-9.1-1.4-14.3.7Z"/>
  <path class="cls-1" d="M322.63,382.48c-12.6,3.2-23.2,16.6-23.2,29.4,0,9.8,1.5,11.7,21.6,27.5,3.5,2.7,6.9,5.4,7.5,6,.6.5,4.5,3.7,8.8,7,6.6,5.1,12.9,10.2,25.1,20.4,1.1.9,3.8,3,6,4.6,2.2,1.7,4.5,3.5,5,4.1.6.5,2.8,2.3,5,3.9s4.2,3.1,4.5,3.4c.8.9,9.8,8.1,15.1,12.1,2.6,2,6.3,4.9,8.1,6.6,1.8,1.6,5.3,4.5,7.8,6.4s5.4,4.3,6.5,5.2c2.3,1.9,18.1,14.6,27,21.5,3.3,2.6,9,7.3,12.6,10.3s11.5,9.3,17.4,14c6,4.7,11.3,8.9,11.9,9.5,8,7.2,25.7,20.2,29.2,21.5,9.7,3.8,26.3-7.2,31.4-20.8,2.5-6.6,2.2-13.4-.7-18.5-1.1-1.9-19.9-17.7-44.8-37.7-168.2-135-169.4-136-173.2-136.8-2.5-.6-5.5-.4-8.6.4Z"/>
  <path class="cls-1" d="M1076.73,657.08c-3.6,4.6-15.4,19.3-26.2,32.7-15.1,18.9-19.6,25.1-19.6,27.3,0,2.5,1.2,3.6,10,9.3,12.5,8.1,19.6,11.8,30.3,15.5,15.2,5.3,26.2,6.1,35.8,2.7,4.7-1.6,6-2.7,12.8-11.2,8.7-10.8,9.1-11.6,9.1-19.3,0-15.9-10-34.2-29.5-54-8.4-8.4-11.7-11.2-13.7-11.2s-3.9,1.8-9,8.2Z"/>
  <path class="cls-1" d="M127.73,695.38c-14.9,4.1-26.8,17.3-29.7,32.9-.6,3.3-1.1,9.9-1.1,14.6,0,16.6,3.4,26.9,11.8,35.9l4.7,5-39.5.3c-44.3.4-44.8.5-55.7,7.8-7.5,5-13.7,13.3-16.4,21.9-1.9,6.5-2,8.9-1.7,72.6l.3,66,3.2,6.7c5.4,11.5,15,20,26.3,23.2,5,1.5,42.8,1.6,405.5,1.4l400-.3,5.8-2.3c6.6-2.7,16.3-11.1,20-17.5,5.7-9.7,5.7-9.5,5.7-79.1s-.1-69.9-5.6-79.3c-6-10.3-17.1-18-29.3-20.3-3-.6-21.3-1-42.2-1h-36.8l4.5-4.5c9-9.1,13.1-22.9,12.1-41-.7-12.3-2.5-18.5-7.8-26.4-5-7.5-13-13.4-21.7-16.1-6.3-2-10-2-307.1-1.9-243.4.1-301.5.3-305.3,1.4Z"/>
</svg>